HIERARCHY
ROOT Hips
{
	OFFSET 0.000000 88.474243 0.000000
	CHANNELS 6 Xposition Yposition Zposition Zrotation Yrotation Xrotation 
	JOINT Hips_Spine
	{
		OFFSET 0.000000 0.000000 0.000000
		CHANNELS 3 Zrotation Yrotation Xrotation
		JOINT Spine
		{
			OFFSET 0.005100 8.711998 -0.691000
			CHANNELS 3 Zrotation Yrotation Xrotation
			JOINT Spine1
			{
				OFFSET -0.009200 8.660301 -1.275000
				CHANNELS 3 Zrotation Yrotation Xrotation
				JOINT Spine2
				{
					OFFSET 0.006300 9.852501 -1.857000
					CHANNELS 3 Zrotation Yrotation Xrotation
					JOINT Spine2_Neck
					{
						OFFSET 0.000000 0.000000 0.000000
						CHANNELS 3 Zrotation Yrotation Xrotation
						JOINT Neck
						{
							OFFSET 0.016300 11.420799 -0.263300
							CHANNELS 3 Zrotation Yrotation Xrotation
							End Site #name: Head
							{
								OFFSET -0.019200 9.262405 2.362500
							}
						}
					}
					JOINT Spine2_LeftShoulder
					{
						OFFSET 0.000000 0.000000 0.000000
						CHANNELS 3 Zrotation Yrotation Xrotation
						JOINT LeftShoulder
						{
							OFFSET 5.616900 6.732201 -0.345700
							CHANNELS 3 Zrotation Yrotation Xrotation
							JOINT LeftArm
							{
								OFFSET 10.664888 -0.183372 -2.440700
								CHANNELS 3 Zrotation Yrotation Xrotation
								JOINT LeftForeArm
								{
									OFFSET 27.459126 0.000000 0.000000
									CHANNELS 3 Zrotation Yrotation Xrotation
									End Site #name: LeftHand
									{
										OFFSET 21.306858 0.000000 0.000000
									}
								}
							}
						}
					}
					JOINT Spine2_RightShoulder
					{
						OFFSET 0.000000 0.000000 0.000000
						CHANNELS 3 Zrotation Yrotation Xrotation
						JOINT RightShoulder
						{
							OFFSET -5.580300 6.737503 -0.344400
							CHANNELS 3 Zrotation Yrotation Xrotation
							JOINT RightArm
							{
								OFFSET -10.679335 -0.188484 -2.383900
								CHANNELS 3 Zrotation Yrotation Xrotation
								JOINT RightForeArm
								{
									OFFSET -27.503529 0.000000 0.000000
									CHANNELS 3 Zrotation Yrotation Xrotation
									End Site #name: RightHand
									{
										OFFSET -21.306808 0.000000 0.000000
									}
								}
							}
						}
					}
				}
			}
		}
	}
	JOINT Hips_LeftUpLeg
	{
		OFFSET 0.000000 0.000000 0.000000
		CHANNELS 3 Zrotation Yrotation Xrotation
		JOINT LeftUpLeg
		{
			OFFSET 6.857700 -6.739601 0.312100
			CHANNELS 3 Zrotation Yrotation Xrotation
			JOINT LeftLeg
			{
				OFFSET -0.367590 -34.731552 -4.572400
				CHANNELS 3 Zrotation Yrotation Xrotation
				End Site #name: LeftFoot
				{
					OFFSET 0.367590 -34.656704 -6.067400
				}
			}
		}
	}
	JOINT Hips_RightUpLeg
	{
		OFFSET 0.000000 0.000000 0.000000
		CHANNELS 3 Zrotation Yrotation Xrotation
		JOINT RightUpLeg
		{
			OFFSET -6.876100 -6.733299 0.301000
			CHANNELS 3 Zrotation Yrotation Xrotation
			JOINT RightLeg
			{
				OFFSET 0.347353 -34.795158 -4.515900
				CHANNELS 3 Zrotation Yrotation Xrotation
				End Site #name: RightFoot
				{
					OFFSET -0.347353 -34.589367 -6.070300
				}
			}
		}
	}
}
MOTION
Frames: 6
Frame Time: 0.041667
-0.066215 0.062054 0.012048 -3.755765 0.860535 -2.833562 -0.000000 0.000000 0.000000 -0.693806 0.840418 5.627915 -1.576444 1.307958 9.826053 0.000000 0.000000 0.000000 -1.879101 1.212717 9.333368 -1.061884 -3.675782 4.087474 -1.949561 1.173480 10.043721 -0.838002 -1.080909 0.315764 -69.105581 -24.322864 19.633131 171.999530 -85.722231 -172.251048 -1.809007 1.721890 10.706569 -4.647379 -0.485964 1.368825 75.469530 -4.380452 5.538162 175.028560 84.575647 176.881055 0.000000 -0.000000 0.000000 7.177915 1.407663 -19.311212 -1.128384 0.460863 33.172760 -0.000000 0.000000 -0.000000 -4.278188 -2.766978 -15.600315 -0.401191 -2.172581 27.324415 
0.032453 0.084230 0.152739 -4.832173 -3.455290 -2.330969 -0.000000 0.000000 0.000000 -0.717822 0.403355 5.280657 -2.001669 1.414167 10.243811 0.000000 0.000000 0.000000 -1.792397 1.304085 10.154064 -1.881576 -4.030581 5.500875 -1.993540 1.483628 10.544308 0.664958 0.879518 -0.150349 -69.115183 -22.787762 30.765237 -179.790457 -82.769315 179.723088 -1.881094 1.179699 10.163896 -5.573246 -2.443550 0.682301 81.371327 -7.032968 5.976827 -164.378424 87.906579 -164.561828 0.000000 -0.000000 0.000000 7.339725 0.226233 -22.713211 -0.565446 0.862903 32.399227 0.000000 0.000000 -0.000000 -3.160954 -3.796784 -16.637481 0.936513 -0.599454 26.770327 
0.192459 0.084896 0.175319 -4.591978 -6.067893 -2.625825 -0.000000 -0.000000 0.000000 -0.697956 0.408636 5.008735 -2.096806 1.365679 10.115613 0.000000 0.000000 0.000000 -2.090482 1.503913 10.799794 -1.699503 -3.543757 4.783089 -1.818606 1.577226 10.289143 0.873899 0.429433 -0.112065 -70.777953 -17.691216 32.688971 -178.164484 -81.864771 177.981599 -2.003600 1.369834 10.112994 -4.334336 -1.971012 0.858991 80.196608 -8.108437 8.353085 -164.452738 87.632342 -164.686380 0.000000 -0.000000 0.000000 7.730143 1.002387 -22.985444 -0.718614 0.545797 33.759790 0.000000 0.000000 0.000000 -2.725485 -3.755796 -16.963971 0.637075 -0.953233 25.971867 
0.303328 0.049766 0.168070 -4.360513 -6.981339 -2.749062 -0.000000 -0.000000 -0.000000 -0.601793 0.495341 4.797536 -2.000618 1.513399 10.053552 0.000000 0.000000 0.000000 -1.933456 1.586733 10.268700 -1.750354 -3.767617 5.188359 -1.872425 1.617744 10.192023 1.640427 0.228713 0.069080 -71.347548 -16.950148 32.211047 -177.814454 -82.972924 177.653350 -2.043980 1.527570 9.977271 -4.236930 -1.192414 1.308844 78.547942 -7.306306 9.127104 -168.454057 85.820255 -168.911671 0.000000 -0.000000 0.000000 7.589532 1.197161 -23.234140 -1.031175 0.534588 34.326339 0.000000 0.000000 0.000000 -2.212834 -3.446026 -17.495218 0.527418 -0.704056 26.524414 
0.379956 0.039743 0.217711 -4.506120 -6.577992 -2.728643 -0.000000 -0.000000 -0.000000 -0.558826 0.607055 4.879139 -1.917980 1.542872 9.884474 0.000000 0.000000 0.000000 -1.872925 1.566401 9.852233 -1.601758 -3.862895 5.224760 -1.926274 1.601624 9.977405 1.854019 0.111919 0.218905 -71.720626 -17.696879 31.255555 -176.191745 -84.054199 176.345041 -2.031037 1.562540 9.923873 -4.202635 -1.715968 1.433219 77.841139 -8.152905 8.111145 -165.583003 85.786924 -166.131857 0.000000 -0.000000 0.000000 7.117917 1.209688 -22.825057 -1.102542 0.652777 34.029539 -0.000000 0.000000 0.000000 -2.216188 -3.378469 -17.710127 0.527537 -0.546223 26.679743 
0.472120 0.046744 0.295552 -4.731802 -5.717220 -2.762953 -0.000000 -0.000000 0.000000 -0.547059 0.690386 4.930706 -1.824429 1.483545 9.693543 0.000000 0.000000 0.000000 -1.831178 1.482139 9.669121 -1.392395 -3.708862 5.085881 -1.914327 1.529555 9.747889 1.880503 0.233529 0.263254 -71.918860 -18.341060 30.297631 -175.042526 -84.364203 175.264467 -2.003149 1.530847 9.895956 -4.538688 -2.211321 1.383826 78.097948 -9.101535 6.917404 -165.033797 85.972971 -165.530605 0.000000 0.000000 0.000000 6.815094 1.256007 -22.459458 -1.143285 0.722018 33.671517 -0.000000 -0.000000 0.000000 -2.602393 -3.441772 -17.389805 0.437737 -0.701848 26.293126 
